<?xml version="1.0" encoding="UTF-8" standalone="no"?>
<!-- Generator: Adobe Illustrator 16.0.0, SVG Export Plug-In . SVG Version: 6.00 Build 0)  -->

<svg
   xmlns:dc="http://purl.org/dc/elements/1.1/"
   xmlns:cc="http://creativecommons.org/ns#"
   xmlns:rdf="http://www.w3.org/1999/02/22-rdf-syntax-ns#"
   xmlns:svg="http://www.w3.org/2000/svg"
   xmlns="http://www.w3.org/2000/svg"
   xmlns:sodipodi="http://sodipodi.sourceforge.net/DTD/sodipodi-0.dtd"
   xmlns:inkscape="http://www.inkscape.org/namespaces/inkscape"
   version="1.1"
   id="Layer_1"
   x="0px"
   y="0px"
   width="78.206px"
   height="69.568px"
   viewBox="0 0 78.206 69.568"
   enable-background="new 0 0 78.206 69.568"
   xml:space="preserve"
   inkscape:version="0.91 r13725"
   sodipodi:docname="api.svg"><metadata
     id="metadata29"><rdf:RDF><cc:Work
         rdf:about=""><dc:format>image/svg+xml</dc:format><dc:type
           rdf:resource="http://purl.org/dc/dcmitype/StillImage" /></cc:Work></rdf:RDF></metadata><defs
     id="defs27" /><sodipodi:namedview
     pagecolor="#ffffff"
     bordercolor="#666666"
     borderopacity="1"
     objecttolerance="10"
     gridtolerance="10"
     guidetolerance="10"
     inkscape:pageopacity="0"
     inkscape:pageshadow="2"
     inkscape:window-width="707"
     inkscape:window-height="480"
     id="namedview25"
     showgrid="false"
     inkscape:zoom="3.3923643"
     inkscape:cx="39.103001"
     inkscape:cy="34.784"
     inkscape:window-x="0"
     inkscape:window-y="27"
     inkscape:window-maximized="0"
     inkscape:current-layer="Layer_1" /><g
     id="g3" /><g
     id="g5"
     style="fill:#000000"><path
       fill="#FFFFFF"
       d="M26.43,46.145c0,2.688,0.128,5.312,0.512,7.423h-5.12l-0.448-3.904h-0.192   c-1.728,2.432-5.056,4.608-9.472,4.608c-6.271,0-9.471-4.416-9.471-8.896c0-7.487,6.656-11.583,18.623-11.519v-0.64   c0-2.56-0.704-7.167-7.039-7.167c-2.88,0-5.888,0.896-8.063,2.304l-1.28-3.711c2.56-1.664,6.271-2.752,10.175-2.752   c9.472,0,11.775,6.463,11.775,12.671V46.145z M20.99,37.762c-6.144-0.128-13.119,0.96-13.119,6.975   c0,3.648,2.432,5.376,5.312,5.376c4.032,0,6.591-2.56,7.487-5.184c0.192-0.576,0.32-1.216,0.32-1.792V37.762z"
       id="path7"
       style="fill:#000000" /><path
       fill="#FFFFFF"
       d="M34.175,32.706c0-3.968-0.128-7.167-0.256-10.111h5.056l0.256,5.312h0.128   c2.304-3.776,5.951-6.016,11.007-6.016c7.488,0,13.119,6.335,13.119,15.743c0,11.135-6.783,16.639-14.079,16.639   c-4.096,0-7.679-1.792-9.535-4.864h-0.128v16.831h-5.567V32.706z M39.743,40.961c0,0.832,0.128,1.6,0.256,2.304   c1.024,3.904,4.416,6.591,8.448,6.591c5.951,0,9.407-4.863,9.407-11.967c0-6.208-3.264-11.52-9.215-11.52   c-3.84,0-7.424,2.752-8.512,6.976c-0.192,0.704-0.384,1.536-0.384,2.304V40.961z"
       id="path9"
       style="fill:#000000" /><path
       fill="#FFFFFF"
       d="M75.518,13.891c0.064,1.92-1.344,3.456-3.584,3.456c-1.984,0-3.392-1.536-3.392-3.456   c0-1.984,1.472-3.52,3.52-3.52C74.174,10.372,75.518,11.907,75.518,13.891z M69.247,53.568V22.595h5.631v30.974H69.247z"
       id="path11"
       style="fill:#000000" /></g><g
     id="g13" /><g
     id="g15" /><g
     id="g17" /><g
     id="g19" /><g
     id="g21" /><g
     id="g23" /></svg>